inDegrees=yes
name=ik_data_2024_11_07_17_56
DataType=double
version=3
OpenSimVersion=4.5.1
endheader
time	pelvis_tilt	pelvis_list	pelvis_rotation	pelvis_tx	pelvis_ty	pelvis_tz	hip_flexion_r	hip_adduction_r	hip_rotation_r	knee_angle_r	knee_angle_r_beta	ankle_angle_r	subtalar_angle_r	mtp_angle_r	hip_flexion_l	hip_adduction_l	hip_rotation_l	knee_angle_l	knee_angle_l_beta	ankle_angle_l	subtalar_angle_l	mtp_angle_l	lumbar_extension	lumbar_bending	lumbar_rotation	arm_flex_r	arm_add_r	arm_rot_r	elbow_flex_r	pro_sup_r	wrist_flex_r	wrist_dev_r	arm_flex_l	arm_add_l	arm_rot_l	elbow_flex_l	pro_sup_l	wrist_flex_l	wrist_dev_l
2.51803	-2.805794844383398	-0.8404633206812454	2.898794818579964	0	0.9399999999999999	0	10.51818512485899	1.085073595305226	6.765789301742677	5.157953983632436	0.09002327968074371	-3.720712649878446	0	0	3.094923805618325	-0.7398640581500354	-7.640098902729866	0.492572740614719	0.008597016129298843	-3.720712649878446	0	0	0	0	0	0	-2.007879570948877	0	56.9083579628874	51.665300578301	0	0	0	-2.007879570948877	0	56.9083579628874	51.665300578301	0	0
2.56033	-2.820391014487924	-1.003201142131105	1.569161603002895	0	0.9399999999999999	0	11.97833783442024	1.62038025426695	7.762078761785198	6.66513515480321	0.1163285535417379	-3.724559521477005	0	0	3.113024916226429	-0.9813742166184035	-8.963591805906043	0.5085695085803641	0.008876212399976905	-3.724559521477005	0	0	0	0	0	0	-2.012356770390022	0	56.92106400624807	51.65287136892344	0	0	0	-2.012356770390022	0	56.92106400624807	51.65287136892344	0	0
2.57369	-2.919032452367723	-1.053143912697361	1.10385681980678	0	0.9399999999999999	0	13.63711023603792	1.767943230605897	7.846929973875518	9.061893619376455	0.158159880123585	-3.733699439622305	0	0	3.19806492571799	-1.048670692030784	-9.415546134251681	0.5089915815764868	0.008883578963443006	-3.733699439622305	0	0	0	0	0	0	-2.023135419943729	0	56.95158331323627	51.62319200693384	0	0	0	-2.023135419943729	0	56.95158331323627	51.62319200693384	0	0
2.63132	-3.035109056402951	-1.143266862206386	0.2895755202946292	0	0.9399999999999999	0	15.8178578476649	1.955412474836189	8.174850592481103	12.20717981227438	0.2130554801071712	-3.747399994991429	0	0	3.305768310559225	-1.180028772872893	-10.21285571231129	0.5111579892569801	0.008921389910408105	-3.747399994991429	0	0	0	0	0	0	-2.039372206555935	0	56.9975546021308	51.57858200715206	0	0	0	-2.039372206555935	0	56.9975546021308	51.57858200715206	0	0
2.68664	-3.136675269100251	-1.14874563585962	0.2424260312312539	0	0.9399999999999999	0	18.10368192289627	1.890271255623414	7.768288415250071	15.68042434612478	0.2736750329497563	-3.758482977970707	0	0	3.401660617425066	-1.190270250329838	-10.26656737979109	0.5141358027548517	0.008973362560456295	-3.758482977970707	0	0	0	0	0	0	-2.052745528247661	0	57.0352374776492	51.54230090613915	0	0	0	-2.052745528247661	0	57.0352374776492	51.54230090613915	0	0
2.74246	-3.165278213449475	-1.099062091561783	0.686949508265785	0	0.9399999999999999	0	20.51760135112435	1.729390358001335	6.939107239836213	19.43233202250123	0.3391581751333753	-3.76846448721126	0	0	3.433435524897302	-1.113015505607076	-9.824820699498929	0.5055416251840762	0.008823365865345214	-3.76846448721126	0	0	0	0	0	0	-2.064911924015136	0	57.06945514490166	51.50950163309997	0	0	0	-2.064911924015136	0	57.06945514490166	51.50950163309997	0	0
2.7536	-3.286354602605811	-1.231395298425856	-0.497769913708426	0	0.9399999999999999	0	23.30012152999013	2.096910448220319	7.598013923859646	23.81359295329871	0.4156256037647826	-3.783775913610055	0	0	3.530532989586709	-1.316958439689966	-10.99897564978487	0.5082696080293978	0.008870978147934	-3.783775913610055	0	0	0	0	0	0	-2.083605609904538	0	57.12209458933368	51.45907925397834	0	0	0	-2.083605609904538	0	57.12209458933368	51.45907925397834	0	0
2.81003	-3.220116394798608	-1.347866533878408	-1.584758728248687	0	0.9399999999999999	0	26.07426342810869	2.41300048755042	8.19179839857463	28.28166170668326	0.4936081147168216	-3.800491207468411	0	0	3.437577088625258	-1.500265147106212	-12.07483094751445	0.5102167264235927	0.008904961774838845	-3.800491207468411	0	0	0	0	0	0	-2.104159931778622	0	57.17994336951057	51.40383769559328	0	0	0	-2.104159931778622	0	57.17994336951057	51.40383769559328	0	0
